<?xml version="1.0" standalone="no"?>
<!DOCTYPE svg PUBLIC "-//W3C//DTD SVG 20010904//EN"
 "http://www.w3.org/TR/2001/REC-SVG-20010904/DTD/svg10.dtd">
<svg version="1.0" xmlns="http://www.w3.org/2000/svg"
 width="1080.000000pt" height="1080.000000pt" viewBox="0 0 1080.000000 1080.000000"
 preserveAspectRatio="xMidYMid meet">
<metadata>
Created by potrace 1.14, written by Peter Selinger 2001-2017
</metadata>
<g transform="translate(0.000000,1080.000000) scale(0.100000,-0.100000)"
fill="#000000" stroke="none">
<path d="M4919 10480 c-6 -11 -8 -11 -9 -2 0 10 -4 10 -16 -2 -18 -19 -38 -21
-27 -3 4 6 -6 4 -21 -7 -25 -16 -28 -16 -23 -2 6 15 4 15 -18 0 -20 -13 -25
-14 -25 -3 0 11 -2 11 -8 2 -5 -7 -20 -14 -35 -15 -15 -1 -27 -6 -27 -11 0 -4
-8 -3 -18 2 -14 7 -22 5 -34 -9 -10 -11 -27 -17 -46 -16 -18 1 -28 -2 -26 -9
4 -11 -50 -39 -73 -38 -7 1 -13 -4 -13 -9 0 -5 -6 -8 -12 -5 -7 2 -17 -2 -23
-9 -5 -6 -21 -15 -34 -19 -18 -5 -22 -4 -17 6 4 8 1 6 -7 -3 -8 -10 -17 -15
-20 -11 -4 3 -7 2 -7 -4 0 -6 -7 -14 -16 -17 -9 -4 -13 -2 -8 5 3 6 -4 4 -17
-4 -13 -8 -32 -13 -42 -12 -9 2 -14 -1 -11 -7 3 -5 0 -9 -7 -7 -33 4 -50 -1
-43 -13 4 -7 4 -10 -1 -6 -4 4 -15 2 -23 -5 -13 -10 -15 -9 -8 3 6 11 4 11 -6
-1 -7 -9 -15 -16 -18 -16 -17 0 -50 -16 -50 -24 0 -5 -7 -9 -16 -9 -8 0 -13
-4 -10 -9 3 -5 -1 -12 -10 -15 -10 -4 -13 -2 -8 7 3 6 -5 0 -18 -15 -14 -16
-31 -28 -37 -28 -7 0 -9 -4 -6 -10 3 -5 -1 -10 -10 -10 -10 0 -13 -5 -9 -12 5
-8 2 -9 -12 -4 -10 4 -15 4 -11 0 4 -4 -5 -18 -19 -31 -14 -13 -22 -28 -18
-35 4 -6 3 -8 -3 -5 -10 6 -43 -26 -43 -43 0 -6 -5 -10 -11 -10 -5 0 -7 -4 -4
-10 3 -5 1 -10 -4 -10 -6 0 -10 -3 -9 -7 1 -5 -3 -18 -10 -30 -7 -13 -9 -23
-5 -23 4 0 2 -4 -5 -8 -7 -5 -15 -19 -17 -32 -2 -13 -8 -26 -13 -29 -5 -3 -8
-14 -6 -23 1 -10 -3 -18 -10 -18 -6 0 -12 -8 -13 -17 -3 -36 -11 -58 -21 -56
-6 1 -9 -5 -8 -15 2 -9 -6 -32 -16 -50 -10 -19 -14 -31 -8 -27 18 11 11 -5
-14 -32 -13 -14 -22 -32 -19 -40 3 -8 0 -19 -8 -24 -12 -8 -12 -11 1 -19 12
-8 12 -10 1 -10 -8 0 -11 -7 -8 -20 3 -11 1 -20 -4 -20 -4 0 -5 -7 -2 -17 5
-12 3 -14 -7 -8 -10 6 -11 4 -4 -6 13 -22 14 -43 1 -51 -9 -6 -9 -8 0 -8 14 0
13 -40 -2 -40 -7 0 -7 -3 0 -8 6 -4 11 -16 11 -27 0 -11 -5 -23 -11 -27 -7 -5
-6 -8 1 -8 12 0 13 -38 1 -57 -5 -7 -4 -13 0 -13 5 0 10 -11 11 -25 1 -14 -4
-25 -11 -25 -7 0 -8 -3 -2 -8 6 -4 11 -16 13 -27 2 -16 -9 -25 -57 -44 -33
-13 -65 -20 -72 -16 -8 5 -10 4 -5 -3 10 -16 -7 -15 -23 1 -11 10 -13 10 -7 0
4 -8 1 -13 -8 -13 -9 0 -16 -5 -16 -11 0 -5 -4 -8 -9 -4 -5 3 -12 1 -16 -5 -4
-6 -11 -8 -16 -5 -5 4 -9 1 -9 -5 0 -6 -4 -8 -10 -5 -5 3 -10 2 -10 -4 0 -5
-17 -15 -37 -21 -21 -7 -43 -19 -50 -27 -6 -8 -16 -12 -22 -8 -6 3 -11 2 -11
-2 0 -5 -19 -16 -42 -26 -23 -10 -48 -26 -56 -35 -10 -12 -12 -13 -7 -2 6 13
5 13 -7 0 -20 -22 -58 -41 -68 -35 -6 4 -10 1 -10 -5 0 -6 -10 -15 -22 -20
-30 -13 -61 -33 -69 -44 -4 -5 -12 -5 -19 -1 -9 5 -11 4 -6 -3 4 -7 3 -12 -3
-12 -9 0 -99 -56 -111 -69 -3 -4 -17 -12 -32 -20 -15 -8 -37 -23 -48 -33 -11
-10 -20 -15 -20 -11 0 4 -6 -1 -13 -12 -9 -11 -19 -15 -27 -10 -9 5 -11 4 -6
-3 4 -7 1 -12 -9 -12 -9 0 -14 -4 -11 -9 3 -5 -1 -12 -10 -15 -10 -4 -13 -2
-9 7 4 6 -3 1 -14 -13 -11 -14 -21 -21 -21 -16 0 5 -10 -3 -21 -18 -12 -15
-23 -25 -26 -22 -4 4 -39 -23 -78 -61 -7 -7 -15 -9 -19 -6 -3 3 -8 -2 -12 -11
-3 -9 -10 -16 -15 -16 -4 0 -19 -10 -32 -22 -38 -37 -97 -89 -97 -85 0 6 -172
-156 -269 -254 -336 -336 -592 -678 -818 -1094 -56 -104 -163 -321 -163 -331
0 -3 -12 -31 -26 -62 -35 -78 -38 -85 -75 -182 -70 -186 -147 -444 -184 -615
-6 -30 -43 -216 -49 -250 -6 -28 -32 -220 -41 -295 -27 -233 -28 -727 -1 -960
2 -19 7 -60 10 -90 10 -84 16 -133 21 -160 3 -14 7 -40 10 -57 12 -75 16 -99
20 -113 2 -8 7 -31 10 -50 28 -163 185 -693 233 -787 6 -10 36 -79 68 -153
175 -409 428 -811 742 -1180 29 -34 52 -70 50 -80 -3 -20 89 -130 109 -130 8
0 12 -3 10 -7 -5 -10 30 -43 37 -36 3 4 6 -1 6 -10 0 -8 9 -19 20 -22 11 -3
20 -13 20 -21 0 -8 4 -12 10 -9 5 3 10 -1 10 -10 0 -9 5 -13 10 -10 6 3 10 -1
10 -9 0 -9 6 -15 13 -14 6 2 11 -2 10 -8 -1 -7 9 -15 23 -18 14 -4 22 -11 19
-16 -3 -6 -1 -10 5 -10 6 0 8 -4 5 -10 -3 -5 1 -10 11 -10 18 0 54 -36 54 -54
0 -6 4 -5 9 3 7 11 10 9 16 -8 3 -11 13 -21 21 -21 8 0 14 -5 14 -11 0 -5 5
-7 10 -4 5 3 10 1 10 -5 0 -14 25 -40 39 -40 6 0 11 -4 11 -10 0 -5 7 -10 16
-10 8 0 12 -4 9 -10 -3 -5 4 -10 15 -10 13 0 24 -8 27 -20 3 -11 9 -17 14 -14
5 3 9 -3 9 -13 0 -15 2 -16 10 -3 8 13 10 12 10 -4 0 -12 5 -16 14 -13 9 4 17
-2 21 -14 4 -10 13 -19 21 -19 9 0 12 -5 8 -12 -4 -7 -4 -10 1 -6 10 10 47
-11 40 -22 -3 -5 4 -7 15 -5 11 2 18 0 15 -6 -4 -5 1 -9 9 -9 9 0 21 -9 28
-20 7 -11 19 -20 26 -20 7 0 11 -4 7 -9 -3 -6 3 -8 15 -6 11 2 19 -1 17 -8 -1
-6 8 -13 21 -15 12 -2 20 -8 17 -13 -5 -8 -1 -10 20 -9 11 1 33 -25 28 -34 -3
-4 4 -5 16 -1 15 5 21 2 21 -10 0 -9 4 -13 10 -10 5 3 10 1 10 -5 0 -6 5 -8
10 -5 6 3 10 -1 10 -9 0 -9 7 -13 20 -11 13 2 20 -2 20 -11 0 -8 4 -12 10 -9
5 3 10 1 10 -5 0 -6 5 -8 10 -5 6 3 10 1 10 -5 0 -7 7 -9 16 -6 8 3 12 2 9 -4
-3 -6 1 -10 10 -10 9 0 14 -4 11 -8 -3 -5 1 -9 9 -10 8 -1 22 -3 29 -4 8 -1
14 -6 13 -12 -1 -6 6 -11 15 -11 9 0 20 -4 25 -9 5 -5 2 -6 -6 -1 -9 5 -12 4
-7 -3 4 -6 13 -9 21 -5 8 3 15 0 15 -6 0 -5 10 -15 21 -22 17 -9 20 -8 14 3
-3 7 3 2 14 -11 12 -13 21 -18 21 -12 0 7 5 9 10 6 6 -4 8 -10 6 -14 -3 -4 5
-8 17 -8 12 -1 27 -9 33 -18 9 -12 13 -13 17 -3 4 8 6 7 6 -4 1 -10 6 -18 12
-18 5 0 7 6 3 13 -4 6 2 4 13 -6 11 -9 27 -17 37 -17 11 0 14 -4 10 -12 -5 -8
-2 -9 9 -5 12 4 17 1 18 -11 0 -10 3 -12 6 -5 3 10 8 9 20 -2 8 -8 19 -13 24
-10 5 4 9 1 9 -4 0 -6 9 -11 19 -11 11 0 26 -7 34 -15 8 -8 17 -11 21 -8 3 4
6 1 6 -5 0 -6 7 -9 15 -6 9 4 18 -1 21 -11 5 -13 9 -14 15 -3 7 10 9 11 9 0 0
-7 5 -10 10 -7 6 3 10 1 10 -5 0 -6 4 -9 9 -6 11 7 61 -16 61 -29 0 -5 5 -3
10 5 6 10 10 11 10 3 0 -7 7 -13 15 -13 8 0 15 -5 15 -11 0 -5 5 -7 11 -4 5 4
19 -1 29 -10 12 -11 20 -13 25 -6 4 8 12 6 22 -4 9 -9 21 -14 29 -11 7 3 18
-1 24 -9 6 -8 17 -12 25 -9 7 3 16 1 20 -5 3 -6 17 -11 31 -11 13 0 24 -5 24
-11 0 -5 4 -7 10 -4 5 3 10 0 10 -7 0 -9 3 -9 10 2 8 12 10 12 10 1 0 -8 3
-12 6 -8 10 10 64 -14 57 -26 -4 -8 -1 -8 9 0 8 7 18 10 22 6 4 -4 19 -9 34
-11 15 -2 29 -7 32 -11 3 -5 13 -7 22 -6 9 2 22 -3 29 -11 8 -10 16 -11 30 -3
13 6 19 6 19 -1 0 -5 9 -10 19 -10 11 0 23 -5 26 -10 5 -8 11 -7 21 1 11 9 14
9 14 -1 0 -8 3 -11 6 -7 3 3 18 1 33 -4 14 -6 43 -12 65 -15 21 -2 45 -9 54
-16 12 -10 14 -10 8 0 -4 6 -2 12 3 12 6 0 11 -4 11 -10 0 -5 5 -10 11 -10 5
0 7 5 3 11 -3 6 5 3 20 -6 19 -12 26 -14 26 -5 0 9 5 8 18 -3 12 -11 22 -13
32 -7 21 13 33 12 24 -2 -5 -8 -2 -9 9 -5 10 4 17 1 17 -6 0 -8 3 -8 9 2 5 7
11 9 14 4 4 -5 16 -9 29 -8 13 1 29 -3 37 -9 12 -9 13 -8 6 4 -8 13 -7 13 8 1
14 -11 17 -11 17 0 0 9 3 10 8 3 7 -12 15 -13 87 -15 25 -1 45 -7 45 -13 0 -7
3 -7 8 -1 10 14 73 13 68 -1 -5 -13 56 -13 66 1 5 6 8 6 8 -2 0 -16 479 -16
499 0 10 8 13 8 8 1 -4 -7 2 -11 18 -11 14 0 22 4 19 9 -4 6 3 5 15 -2 14 -7
27 -8 34 -2 7 5 20 12 31 16 14 5 17 3 12 -10 -6 -14 -4 -15 9 -4 9 8 42 15
73 17 31 2 74 4 95 5 20 2 37 6 37 10 0 4 9 5 20 3 11 -2 33 0 50 5 22 6 29 6
24 -3 -5 -8 -3 -8 7 1 7 6 17 12 22 12 4 0 5 -6 2 -12 -4 -7 0 -6 7 3 10 12
27 16 61 14 30 -1 51 3 58 12 9 10 15 10 25 2 11 -9 14 -8 14 1 0 7 7 10 15 6
8 -3 15 -1 15 5 0 6 7 9 15 6 8 -4 17 -2 20 3 4 6 12 10 18 10 7 0 6 -4 -3
-10 -9 -6 -10 -10 -3 -10 6 0 15 5 18 10 4 6 11 8 16 5 5 -4 9 0 9 7 0 9 3 9
10 -2 5 -8 10 -10 10 -5 0 6 8 12 18 13 21 2 57 10 57 12 0 2 16 6 50 14 11 2
21 5 23 6 1 2 10 3 20 4 9 1 28 6 41 10 16 6 27 4 33 -5 8 -11 9 -10 4 4 -5
16 -1 18 39 17 3 0 22 7 42 15 20 9 43 13 50 11 7 -3 13 -1 13 4 0 7 67 31
125 45 6 1 18 5 27 9 9 4 22 4 29 0 8 -4 9 -3 5 4 -7 11 -3 13 37 16 6 1 14 4
17 7 3 3 68 31 145 62 78 31 165 67 195 81 52 24 77 26 64 4 -10 -15 296 142
421 217 731 438 1302 1022 1717 1755 779 1376 809 3085 79 4490 l-71 135 67
60 c162 145 259 268 352 446 148 282 208 611 167 919 -9 68 -20 127 -24 130
-4 3 -8 19 -10 35 -2 17 -8 32 -13 33 -5 2 -7 8 -4 12 9 15 -6 60 -18 53 -6
-3 -7 -1 -3 5 3 6 -2 33 -13 61 -10 27 -16 52 -13 55 3 4 0 6 -7 6 -7 0 -10 4
-6 9 3 5 0 15 -7 23 -7 7 -14 20 -16 28 -2 8 -8 18 -14 21 -6 4 -7 12 -4 18 4
6 2 11 -4 11 -6 0 -8 5 -5 10 3 6 -1 13 -9 16 -9 3 -13 10 -10 15 3 5 0 9 -6
9 -6 0 -9 4 -5 9 3 6 -2 14 -11 19 -9 5 -17 13 -17 18 -1 5 -6 8 -10 6 -5 -1
-6 2 -3 7 10 15 -5 41 -23 41 -14 0 -14 2 -1 10 13 8 12 10 -3 10 -10 0 -17 6
-15 12 5 15 -15 38 -34 38 -10 0 -9 3 2 10 13 9 13 10 0 11 -8 1 -18 1 -21 1
-4 -1 -5 7 -2 16 4 17 -51 77 -72 77 -5 0 -9 8 -7 18 2 10 -7 22 -23 29 -14 6
-25 17 -25 25 0 12 -12 17 -32 14 -5 0 -7 5 -5 12 1 6 -4 11 -10 10 -7 -2 -13
2 -13 8 0 14 -26 39 -40 39 -6 0 -9 4 -5 9 5 9 -32 27 -48 23 -5 -1 -6 2 -2 8
3 5 -5 14 -18 19 -13 5 -27 17 -30 25 -4 9 -16 16 -28 16 -12 0 -19 3 -15 7 3
4 -18 19 -48 34 -31 14 -52 29 -49 33 6 6 -12 9 -21 4 -2 -2 -13 5 -23 15 -11
9 -23 14 -26 10 -4 -3 -7 -1 -7 5 0 7 -9 12 -20 12 -11 0 -20 5 -20 11 0 5 -4
8 -9 5 -4 -3 -16 1 -27 8 -10 8 -24 12 -31 9 -7 -3 -13 0 -13 7 0 7 -7 10 -15
6 -8 -3 -15 0 -15 7 0 9 -3 8 -9 -1 -7 -11 -9 -11 -14 1 -5 13 -65 32 -94 30
-7 0 -13 2 -13 6 0 8 -5 9 -60 13 -19 2 -38 6 -41 11 -3 4 -31 8 -62 10 -31 1
-57 6 -57 10 0 9 -321 4 -355 -6 -11 -3 -35 -6 -53 -6 -18 -1 -31 -4 -28 -9 2
-4 -8 -8 -22 -8 -69 -3 -83 -5 -79 -11 3 -5 -13 -9 -36 -11 -23 -1 -45 -8 -49
-15 -4 -7 -8 -8 -8 -3 0 4 -11 1 -25 -8 -14 -9 -25 -14 -25 -10 0 3 -12 -1
-26 -11 -18 -11 -24 -12 -18 -4 6 12 5 12 -9 0 -9 -7 -17 -11 -17 -7 0 4 -14
-1 -30 -9 -17 -9 -28 -20 -26 -24 3 -5 -4 -8 -17 -7 -12 0 -21 -4 -20 -11 1
-6 -5 -10 -15 -9 -23 4 -63 -15 -56 -25 3 -5 -4 -9 -16 -9 -12 0 -18 -4 -15
-10 3 -5 -6 -12 -20 -16 -14 -3 -25 -11 -25 -17 0 -6 -3 -7 -7 -4 -3 4 -12 -1
-20 -11 -8 -9 -11 -11 -8 -3 5 9 -1 8 -19 -4 -14 -10 -26 -21 -26 -26 0 -5 -7
-9 -15 -9 -8 0 -15 -7 -15 -16 0 -8 -4 -13 -8 -10 -5 3 -27 -13 -50 -35 -23
-21 -48 -39 -55 -39 -9 0 -9 -2 0 -8 9 -6 6 -11 -8 -21 -16 -9 -19 -9 -14 0 6
8 4 10 -4 4 -7 -4 -10 -16 -8 -27 4 -16 3 -17 -9 -7 -10 9 -14 9 -14 0 0 -7
-18 -30 -40 -52 -22 -23 -37 -46 -34 -51 5 -7 2 -8 -5 -4 -14 9 -43 -23 -36
-41 2 -7 -2 -10 -11 -6 -8 3 -14 2 -13 -3 3 -20 -2 -35 -10 -29 -6 3 -17 -11
-27 -30 -17 -36 -54 -67 -54 -45 0 6 -4 8 -10 5 -5 -3 -10 -2 -10 4 0 5 -9 8
-19 6 -11 -2 -22 3 -25 10 -3 8 -14 12 -26 10 -11 -2 -18 0 -15 4 6 11 -13 19
-42 16 -12 -1 -20 2 -17 7 5 8 0 10 -28 12 -7 1 -16 4 -19 9 -3 4 -16 9 -28
12 -13 2 -28 8 -35 13 -6 4 -18 8 -26 7 -8 0 -18 3 -21 8 -3 5 -12 9 -20 10
-8 2 -20 7 -28 11 -10 7 -12 5 -6 -5 6 -10 2 -9 -11 2 -10 9 -27 15 -36 14
-10 -2 -18 1 -18 6 0 6 -4 7 -10 4 -5 -3 -10 -2 -10 4 0 5 -8 8 -17 7 -10 -2
-20 1 -23 5 -3 5 -21 10 -40 11 -19 2 -37 6 -40 9 -6 6 -164 49 -200 53 -47 6
-61 16 -49 37 7 14 6 19 -3 19 -9 0 -9 3 2 10 10 6 11 10 3 10 -7 0 -13 9 -13
19 0 11 -6 22 -12 24 -10 4 -10 6 -1 6 9 1 9 10 -2 40 -7 22 -11 42 -8 45 4 3
2 6 -4 6 -5 0 -10 6 -11 13 -3 21 -10 62 -12 67 -1 3 -2 8 -1 13 0 4 -7 7 -17
8 -10 0 -12 3 -5 6 9 3 10 10 3 22 -5 10 -6 22 -2 26 4 5 2 5 -5 1 -6 -3 -14
-2 -18 4 -3 5 0 10 7 10 7 1 2 7 -12 15 -14 8 -21 14 -17 15 11 0 -23 61 -43
77 -8 7 -11 13 -7 13 4 0 2 7 -5 15 -7 9 -18 21 -23 28 -6 7 -18 25 -28 40
-10 15 -22 25 -28 22 -5 -4 -8 -2 -7 4 3 12 -20 44 -69 95 -17 19 -29 37 -26
40 4 3 -1 6 -10 6 -10 0 -17 7 -17 16 0 8 -4 12 -10 9 -5 -3 -10 0 -10 9 0 8
-13 26 -30 39 -16 14 -30 30 -30 36 0 6 -6 11 -14 11 -8 0 -18 10 -21 21 -6
17 -9 19 -16 8 -7 -12 -9 -11 -9 1 0 8 -12 24 -27 34 -17 13 -24 14 -19 5 5
-9 3 -8 -6 2 -7 9 -19 14 -27 11 -8 -3 -11 0 -7 7 5 7 -2 11 -18 11 -14 0 -26
6 -26 13 0 7 -3 8 -8 2 -9 -13 -35 -18 -27 -5 6 9 -29 15 -62 11 -7 -1 -13 3
-13 9 0 5 -12 10 -26 10 -14 0 -35 5 -46 11 -15 8 -19 8 -13 -1 5 -7 0 -7 -14
2 -18 11 -23 11 -31 -2 -6 -9 -10 -10 -10 -3 0 6 -9 10 -20 8 -11 -2 -20 0
-20 6 0 5 -5 9 -11 9 -5 0 -7 -4 -4 -10 3 -6 -1 -7 -9 -4 -9 3 -16 10 -16 16
0 5 -4 7 -8 4 -5 -3 -23 4 -41 15 -19 11 -40 18 -48 14 -10 -3 -13 -1 -10 8 4
10 -2 13 -19 9 -13 -2 -24 -9 -24 -16 0 -6 -4 -5 -9 3 -5 7 -20 14 -35 14 -14
0 -30 5 -35 11 -6 7 -24 11 -41 10 -16 -1 -30 3 -30 8 0 6 -6 5 -15 -2 -11 -9
-15 -9 -15 -1 0 8 -5 9 -19 1 -13 -6 -22 -7 -26 0 -3 5 -13 6 -22 3 -10 -4
-14 -2 -10 4 5 7 -1 9 -15 5 -14 -3 -19 -1 -14 6 5 8 2 10 -8 6 -9 -3 -13 -11
-9 -17 3 -6 1 -7 -6 -3 -6 4 -9 11 -6 16 3 5 -4 12 -17 14 -38 9 -79 2 -89
-14z m185 -10458 c3 -5 -1 -9 -9 -9 -8 0 -12 4 -9 9 3 4 7 8 9 8 2 0 6 -4 9
-8z"/>
<path d="M895 9800 c-4 -6 -13 -9 -21 -6 -7 3 -20 -1 -28 -9 -7 -8 -16 -12
-19 -9 -10 11 -105 -40 -100 -53 3 -8 -2 -11 -15 -8 -12 2 -23 -3 -26 -12 -4
-9 -9 -13 -12 -11 -7 7 -61 -45 -56 -54 2 -5 -2 -8 -8 -8 -6 0 -8 -5 -5 -10 3
-6 -1 -13 -9 -16 -9 -3 -14 -10 -11 -15 3 -4 -4 -13 -16 -20 -16 -8 -18 -13
-9 -19 9 -6 8 -10 -6 -19 -11 -6 -16 -11 -11 -11 4 0 0 -11 -9 -25 -9 -14 -12
-25 -8 -25 5 0 3 -4 -5 -9 -11 -7 -14 -35 -14 -121 0 -63 5 -115 10 -119 6 -3
9 -14 7 -23 -1 -10 2 -20 7 -24 5 -3 7 -10 4 -15 -4 -5 -1 -9 4 -9 6 0 11 -7
11 -16 0 -8 4 -12 10 -9 5 3 7 0 4 -8 -3 -8 2 -20 11 -27 8 -7 15 -18 15 -24
0 -6 9 -18 20 -26 11 -8 20 -18 20 -23 0 -13 30 -40 37 -34 3 4 21 -10 39 -31
18 -20 34 -33 34 -28 0 5 9 1 20 -9 11 -10 20 -15 20 -11 0 3 11 -1 25 -10 14
-9 25 -12 25 -8 0 5 4 3 9 -4 4 -7 29 -14 54 -15 26 -1 47 -5 47 -9 0 -5 18
-8 40 -8 22 0 40 4 40 9 0 5 14 8 31 7 17 -1 36 2 43 8 6 6 22 12 36 14 26 3
130 50 130 58 0 3 -5 2 -12 -2 -7 -4 -8 -3 -4 4 4 7 14 12 22 12 8 0 12 5 9
10 -6 9 7 14 27 11 4 0 5 6 2 14 -4 9 0 15 9 15 9 0 19 9 22 20 4 11 11 18 16
15 5 -4 9 1 9 9 0 9 4 16 9 16 6 0 8 9 6 21 -3 15 0 19 10 16 7 -3 16 1 19 9
4 9 2 12 -5 8 -6 -3 -3 5 6 20 10 14 13 26 9 26 -5 0 -4 4 1 8 23 16 35 68 35
152 0 55 -4 90 -10 90 -6 0 -8 11 -6 24 3 14 -2 30 -10 37 -8 6 -14 22 -14 36
0 13 -7 26 -15 29 -8 4 -12 10 -9 15 3 5 0 9 -6 9 -6 0 -8 5 -5 10 3 6 2 10
-4 10 -5 0 -13 9 -16 20 -3 11 -13 20 -21 20 -8 0 -13 6 -12 13 2 6 -3 11 -9
10 -12 -3 -17 10 -14 30 1 5 -3 6 -8 3 -5 -3 -23 8 -41 24 -18 17 -38 30 -46
30 -8 0 -14 4 -14 9 0 6 -9 8 -20 6 -11 -2 -19 1 -17 8 1 7 -5 12 -13 12 -8 0
-18 4 -21 8 -14 18 -214 34 -224 17z"/>
</g>
</svg>
